<mxfile host="app.diagrams.net" modified="2024-05-10T10:18:57.409Z" agent="Mozilla/5.0 (Windows NT 10.0; Win64; x64) AppleWebKit/537.36 (KHTML, like Gecko) Chrome/126.0.0.0 Safari/537.36" etag="Uf0F27RzgGZSPzDW_Ij3" version="24.3.1" type="device">
  <diagram name="Pagina-1" id="opLL4LoB17zQIWE38la9">
    <mxGraphModel dx="1687" dy="868" grid="1" gridSize="10" guides="1" tooltips="1" connect="1" arrows="1" fold="1" page="1" pageScale="1" pageWidth="3300" pageHeight="4681" math="0" shadow="0">
      <root>
        <mxCell id="0" />
        <mxCell id="1" parent="0" />
        <mxCell id="9be7_pFp6uKiazAgbo8Y-1" value="Utente" style="swimlane;fontStyle=1;align=center;verticalAlign=top;childLayout=stackLayout;horizontal=1;startSize=26;horizontalStack=0;resizeParent=1;resizeParentMax=0;resizeLast=0;collapsible=1;marginBottom=0;whiteSpace=wrap;html=1;" vertex="1" parent="1">
          <mxGeometry x="30" y="10" width="160" height="210" as="geometry" />
        </mxCell>
        <mxCell id="9be7_pFp6uKiazAgbo8Y-2" value="+ nome: String" style="text;strokeColor=none;fillColor=none;align=left;verticalAlign=top;spacingLeft=4;spacingRight=4;overflow=hidden;rotatable=0;points=[[0,0.5],[1,0.5]];portConstraint=eastwest;whiteSpace=wrap;html=1;" vertex="1" parent="9be7_pFp6uKiazAgbo8Y-1">
          <mxGeometry y="26" width="160" height="26" as="geometry" />
        </mxCell>
        <mxCell id="9be7_pFp6uKiazAgbo8Y-4" value="+ cognome: String" style="text;strokeColor=none;fillColor=none;align=left;verticalAlign=top;spacingLeft=4;spacingRight=4;overflow=hidden;rotatable=0;points=[[0,0.5],[1,0.5]];portConstraint=eastwest;whiteSpace=wrap;html=1;" vertex="1" parent="9be7_pFp6uKiazAgbo8Y-1">
          <mxGeometry y="52" width="160" height="26" as="geometry" />
        </mxCell>
        <mxCell id="9be7_pFp6uKiazAgbo8Y-8" value="+ dataDiNascita: LocalDate" style="text;strokeColor=none;fillColor=none;align=left;verticalAlign=top;spacingLeft=4;spacingRight=4;overflow=hidden;rotatable=0;points=[[0,0.5],[1,0.5]];portConstraint=eastwest;whiteSpace=wrap;html=1;" vertex="1" parent="9be7_pFp6uKiazAgbo8Y-1">
          <mxGeometry y="78" width="160" height="26" as="geometry" />
        </mxCell>
        <mxCell id="9be7_pFp6uKiazAgbo8Y-9" value="+ email: String" style="text;strokeColor=none;fillColor=none;align=left;verticalAlign=top;spacingLeft=4;spacingRight=4;overflow=hidden;rotatable=0;points=[[0,0.5],[1,0.5]];portConstraint=eastwest;whiteSpace=wrap;html=1;" vertex="1" parent="9be7_pFp6uKiazAgbo8Y-1">
          <mxGeometry y="104" width="160" height="26" as="geometry" />
        </mxCell>
        <mxCell id="9be7_pFp6uKiazAgbo8Y-10" value="+ numeroTelefono: String" style="text;strokeColor=none;fillColor=none;align=left;verticalAlign=top;spacingLeft=4;spacingRight=4;overflow=hidden;rotatable=0;points=[[0,0.5],[1,0.5]];portConstraint=eastwest;whiteSpace=wrap;html=1;" vertex="1" parent="9be7_pFp6uKiazAgbo8Y-1">
          <mxGeometry y="130" width="160" height="26" as="geometry" />
        </mxCell>
        <mxCell id="9be7_pFp6uKiazAgbo8Y-11" value="+ Sesso: enum Sesso (UOMO, DONNA, NON_SPECIFICATO" style="text;strokeColor=none;fillColor=none;align=left;verticalAlign=top;spacingLeft=4;spacingRight=4;overflow=hidden;rotatable=0;points=[[0,0.5],[1,0.5]];portConstraint=eastwest;whiteSpace=wrap;html=1;" vertex="1" parent="9be7_pFp6uKiazAgbo8Y-1">
          <mxGeometry y="156" width="160" height="54" as="geometry" />
        </mxCell>
        <mxCell id="9be7_pFp6uKiazAgbo8Y-23" value="" style="edgeStyle=orthogonalEdgeStyle;rounded=0;orthogonalLoop=1;jettySize=auto;html=1;entryX=-0.021;entryY=0.069;entryDx=0;entryDy=0;entryPerimeter=0;" edge="1" parent="1" source="9be7_pFp6uKiazAgbo8Y-17" target="9be7_pFp6uKiazAgbo8Y-1">
          <mxGeometry relative="1" as="geometry">
            <Array as="points">
              <mxPoint x="125" y="245" />
              <mxPoint x="10" y="245" />
              <mxPoint x="10" y="25" />
            </Array>
          </mxGeometry>
        </mxCell>
        <mxCell id="9be7_pFp6uKiazAgbo8Y-17" value="Tessera" style="swimlane;fontStyle=1;align=center;verticalAlign=top;childLayout=stackLayout;horizontal=1;startSize=26;horizontalStack=0;resizeParent=1;resizeParentMax=0;resizeLast=0;collapsible=1;marginBottom=0;whiteSpace=wrap;html=1;" vertex="1" parent="1">
          <mxGeometry x="30" y="270" width="190" height="104" as="geometry" />
        </mxCell>
        <mxCell id="9be7_pFp6uKiazAgbo8Y-18" value="+ id: Integer" style="text;strokeColor=none;fillColor=none;align=left;verticalAlign=top;spacingLeft=4;spacingRight=4;overflow=hidden;rotatable=0;points=[[0,0.5],[1,0.5]];portConstraint=eastwest;whiteSpace=wrap;html=1;" vertex="1" parent="9be7_pFp6uKiazAgbo8Y-17">
          <mxGeometry y="26" width="190" height="26" as="geometry" />
        </mxCell>
        <mxCell id="9be7_pFp6uKiazAgbo8Y-21" value="+ dataEmissione: LocalDate" style="text;strokeColor=none;fillColor=none;align=left;verticalAlign=top;spacingLeft=4;spacingRight=4;overflow=hidden;rotatable=0;points=[[0,0.5],[1,0.5]];portConstraint=eastwest;whiteSpace=wrap;html=1;" vertex="1" parent="9be7_pFp6uKiazAgbo8Y-17">
          <mxGeometry y="52" width="190" height="26" as="geometry" />
        </mxCell>
        <mxCell id="9be7_pFp6uKiazAgbo8Y-22" value="+ dataScadenza: LocalDate" style="text;strokeColor=none;fillColor=none;align=left;verticalAlign=top;spacingLeft=4;spacingRight=4;overflow=hidden;rotatable=0;points=[[0,0.5],[1,0.5]];portConstraint=eastwest;whiteSpace=wrap;html=1;" vertex="1" parent="9be7_pFp6uKiazAgbo8Y-17">
          <mxGeometry y="78" width="190" height="26" as="geometry" />
        </mxCell>
        <mxCell id="9be7_pFp6uKiazAgbo8Y-24" value="Rivenditore" style="swimlane;fontStyle=1;align=center;verticalAlign=top;childLayout=stackLayout;horizontal=1;startSize=26;horizontalStack=0;resizeParent=1;resizeParentMax=0;resizeLast=0;collapsible=1;marginBottom=0;whiteSpace=wrap;html=1;" vertex="1" parent="1">
          <mxGeometry x="410" y="10" width="160" height="78" as="geometry" />
        </mxCell>
        <mxCell id="9be7_pFp6uKiazAgbo8Y-25" value="+ id: Integer" style="text;strokeColor=none;fillColor=none;align=left;verticalAlign=top;spacingLeft=4;spacingRight=4;overflow=hidden;rotatable=0;points=[[0,0.5],[1,0.5]];portConstraint=eastwest;whiteSpace=wrap;html=1;" vertex="1" parent="9be7_pFp6uKiazAgbo8Y-24">
          <mxGeometry y="26" width="160" height="26" as="geometry" />
        </mxCell>
        <mxCell id="9be7_pFp6uKiazAgbo8Y-28" value="+ tickets: List&amp;lt;Ticket&amp;gt;" style="text;strokeColor=none;fillColor=none;align=left;verticalAlign=top;spacingLeft=4;spacingRight=4;overflow=hidden;rotatable=0;points=[[0,0.5],[1,0.5]];portConstraint=eastwest;whiteSpace=wrap;html=1;" vertex="1" parent="9be7_pFp6uKiazAgbo8Y-24">
          <mxGeometry y="52" width="160" height="26" as="geometry" />
        </mxCell>
        <mxCell id="9be7_pFp6uKiazAgbo8Y-37" value="" style="edgeStyle=orthogonalEdgeStyle;rounded=0;orthogonalLoop=1;jettySize=auto;html=1;entryX=-0.006;entryY=0.176;entryDx=0;entryDy=0;entryPerimeter=0;" edge="1" parent="1" source="9be7_pFp6uKiazAgbo8Y-29" target="9be7_pFp6uKiazAgbo8Y-24">
          <mxGeometry relative="1" as="geometry" />
        </mxCell>
        <mxCell id="9be7_pFp6uKiazAgbo8Y-29" value="RivenditoreAutorizzato" style="swimlane;fontStyle=0;childLayout=stackLayout;horizontal=1;startSize=26;fillColor=none;horizontalStack=0;resizeParent=1;resizeParentMax=0;resizeLast=0;collapsible=1;marginBottom=0;whiteSpace=wrap;html=1;" vertex="1" parent="1">
          <mxGeometry x="340" y="120" width="190" height="78" as="geometry">
            <mxRectangle x="340" y="120" width="160" height="30" as="alternateBounds" />
          </mxGeometry>
        </mxCell>
        <mxCell id="9be7_pFp6uKiazAgbo8Y-30" value="+ nomeRivenditore: String" style="text;strokeColor=none;fillColor=none;align=left;verticalAlign=top;spacingLeft=4;spacingRight=4;overflow=hidden;rotatable=0;points=[[0,0.5],[1,0.5]];portConstraint=eastwest;whiteSpace=wrap;html=1;" vertex="1" parent="9be7_pFp6uKiazAgbo8Y-29">
          <mxGeometry y="26" width="190" height="26" as="geometry" />
        </mxCell>
        <mxCell id="9be7_pFp6uKiazAgbo8Y-31" value="+ autorizzazione: Autorizzazione" style="text;strokeColor=none;fillColor=none;align=left;verticalAlign=top;spacingLeft=4;spacingRight=4;overflow=hidden;rotatable=0;points=[[0,0.5],[1,0.5]];portConstraint=eastwest;whiteSpace=wrap;html=1;" vertex="1" parent="9be7_pFp6uKiazAgbo8Y-29">
          <mxGeometry y="52" width="190" height="26" as="geometry" />
        </mxCell>
        <mxCell id="9be7_pFp6uKiazAgbo8Y-33" value="DistributoreAutomatico" style="swimlane;fontStyle=0;childLayout=stackLayout;horizontal=1;startSize=26;fillColor=none;horizontalStack=0;resizeParent=1;resizeParentMax=0;resizeLast=0;collapsible=1;marginBottom=0;whiteSpace=wrap;html=1;" vertex="1" parent="1">
          <mxGeometry x="540" y="146" width="140" height="52" as="geometry" />
        </mxCell>
        <mxCell id="9be7_pFp6uKiazAgbo8Y-34" value="+ attivo: Boolean" style="text;strokeColor=none;fillColor=none;align=left;verticalAlign=top;spacingLeft=4;spacingRight=4;overflow=hidden;rotatable=0;points=[[0,0.5],[1,0.5]];portConstraint=eastwest;whiteSpace=wrap;html=1;" vertex="1" parent="9be7_pFp6uKiazAgbo8Y-33">
          <mxGeometry y="26" width="140" height="26" as="geometry" />
        </mxCell>
        <mxCell id="9be7_pFp6uKiazAgbo8Y-41" style="edgeStyle=orthogonalEdgeStyle;rounded=0;orthogonalLoop=1;jettySize=auto;html=1;exitX=0.25;exitY=0;exitDx=0;exitDy=0;entryX=0.994;entryY=0.161;entryDx=0;entryDy=0;entryPerimeter=0;" edge="1" parent="1" source="9be7_pFp6uKiazAgbo8Y-33" target="9be7_pFp6uKiazAgbo8Y-24">
          <mxGeometry relative="1" as="geometry" />
        </mxCell>
        <mxCell id="9be7_pFp6uKiazAgbo8Y-42" value="Ticket" style="swimlane;fontStyle=0;childLayout=stackLayout;horizontal=1;startSize=26;fillColor=none;horizontalStack=0;resizeParent=1;resizeParentMax=0;resizeLast=0;collapsible=1;marginBottom=0;whiteSpace=wrap;html=1;" vertex="1" parent="1">
          <mxGeometry x="760" y="10" width="180" height="130" as="geometry" />
        </mxCell>
        <mxCell id="9be7_pFp6uKiazAgbo8Y-43" value="+ id: Integer" style="text;strokeColor=none;fillColor=none;align=left;verticalAlign=top;spacingLeft=4;spacingRight=4;overflow=hidden;rotatable=0;points=[[0,0.5],[1,0.5]];portConstraint=eastwest;whiteSpace=wrap;html=1;" vertex="1" parent="9be7_pFp6uKiazAgbo8Y-42">
          <mxGeometry y="26" width="180" height="26" as="geometry" />
        </mxCell>
        <mxCell id="9be7_pFp6uKiazAgbo8Y-44" value="+ prezzo: Double" style="text;strokeColor=none;fillColor=none;align=left;verticalAlign=top;spacingLeft=4;spacingRight=4;overflow=hidden;rotatable=0;points=[[0,0.5],[1,0.5]];portConstraint=eastwest;whiteSpace=wrap;html=1;" vertex="1" parent="9be7_pFp6uKiazAgbo8Y-42">
          <mxGeometry y="52" width="180" height="26" as="geometry" />
        </mxCell>
        <mxCell id="9be7_pFp6uKiazAgbo8Y-45" value="+ dataEmissione: LocalDate" style="text;strokeColor=none;fillColor=none;align=left;verticalAlign=top;spacingLeft=4;spacingRight=4;overflow=hidden;rotatable=0;points=[[0,0.5],[1,0.5]];portConstraint=eastwest;whiteSpace=wrap;html=1;" vertex="1" parent="9be7_pFp6uKiazAgbo8Y-42">
          <mxGeometry y="78" width="180" height="26" as="geometry" />
        </mxCell>
        <mxCell id="9be7_pFp6uKiazAgbo8Y-46" value="+ rivenditori: List&amp;lt;Rivenditore&amp;gt;" style="text;strokeColor=none;fillColor=none;align=left;verticalAlign=top;spacingLeft=4;spacingRight=4;overflow=hidden;rotatable=0;points=[[0,0.5],[1,0.5]];portConstraint=eastwest;whiteSpace=wrap;html=1;" vertex="1" parent="9be7_pFp6uKiazAgbo8Y-42">
          <mxGeometry y="104" width="180" height="26" as="geometry" />
        </mxCell>
        <mxCell id="9be7_pFp6uKiazAgbo8Y-47" value="" style="edgeStyle=entityRelationEdgeStyle;fontSize=12;html=1;endArrow=ERoneToMany;startArrow=ERoneToMany;rounded=0;entryX=0;entryY=0.5;entryDx=0;entryDy=0;exitX=1;exitY=0.5;exitDx=0;exitDy=0;" edge="1" parent="1" source="9be7_pFp6uKiazAgbo8Y-28" target="9be7_pFp6uKiazAgbo8Y-46">
          <mxGeometry width="100" height="100" relative="1" as="geometry">
            <mxPoint x="520" y="170" as="sourcePoint" />
            <mxPoint x="620" y="70" as="targetPoint" />
            <Array as="points">
              <mxPoint x="680" y="80" />
              <mxPoint x="680" y="60" />
              <mxPoint x="680" y="70" />
              <mxPoint x="670" y="80" />
            </Array>
          </mxGeometry>
        </mxCell>
        <mxCell id="9be7_pFp6uKiazAgbo8Y-48" value="Biglietto" style="swimlane;fontStyle=0;childLayout=stackLayout;horizontal=1;startSize=26;fillColor=none;horizontalStack=0;resizeParent=1;resizeParentMax=0;resizeLast=0;collapsible=1;marginBottom=0;whiteSpace=wrap;html=1;" vertex="1" parent="1">
          <mxGeometry x="720" y="180" width="190" height="160" as="geometry" />
        </mxCell>
        <mxCell id="9be7_pFp6uKiazAgbo8Y-49" value="+ vidimazione: LocalDateTime" style="text;strokeColor=none;fillColor=none;align=left;verticalAlign=top;spacingLeft=4;spacingRight=4;overflow=hidden;rotatable=0;points=[[0,0.5],[1,0.5]];portConstraint=eastwest;whiteSpace=wrap;html=1;" vertex="1" parent="9be7_pFp6uKiazAgbo8Y-48">
          <mxGeometry y="26" width="190" height="26" as="geometry" />
        </mxCell>
        <mxCell id="9be7_pFp6uKiazAgbo8Y-50" value="+ scadenza: LocalDateTime" style="text;strokeColor=none;fillColor=none;align=left;verticalAlign=top;spacingLeft=4;spacingRight=4;overflow=hidden;rotatable=0;points=[[0,0.5],[1,0.5]];portConstraint=eastwest;whiteSpace=wrap;html=1;" vertex="1" parent="9be7_pFp6uKiazAgbo8Y-48">
          <mxGeometry y="52" width="190" height="26" as="geometry" />
        </mxCell>
        <mxCell id="9be7_pFp6uKiazAgbo8Y-51" value="+ mezzo: Mezzo" style="text;strokeColor=none;fillColor=none;align=left;verticalAlign=top;spacingLeft=4;spacingRight=4;overflow=hidden;rotatable=0;points=[[0,0.5],[1,0.5]];portConstraint=eastwest;whiteSpace=wrap;html=1;" vertex="1" parent="9be7_pFp6uKiazAgbo8Y-48">
          <mxGeometry y="78" width="190" height="26" as="geometry" />
        </mxCell>
        <mxCell id="9be7_pFp6uKiazAgbo8Y-52" value="+ tipoBiglietto: enum TipoBiglietto (GIORNALIERO, CORSA_SINGOLA, MINUTI_90)" style="text;strokeColor=none;fillColor=none;align=left;verticalAlign=top;spacingLeft=4;spacingRight=4;overflow=hidden;rotatable=0;points=[[0,0.5],[1,0.5]];portConstraint=eastwest;whiteSpace=wrap;html=1;" vertex="1" parent="9be7_pFp6uKiazAgbo8Y-48">
          <mxGeometry y="104" width="190" height="56" as="geometry" />
        </mxCell>
        <mxCell id="9be7_pFp6uKiazAgbo8Y-53" value="TipoBiglietto" style="swimlane;fontStyle=0;childLayout=stackLayout;horizontal=1;startSize=26;fillColor=none;horizontalStack=0;resizeParent=1;resizeParentMax=0;resizeLast=0;collapsible=1;marginBottom=0;whiteSpace=wrap;html=1;" vertex="1" parent="1">
          <mxGeometry x="530" y="230" width="140" height="80" as="geometry" />
        </mxCell>
        <mxCell id="9be7_pFp6uKiazAgbo8Y-54" value="GIORNALIERO, CORSA_SINGOLA, MINUTI_90" style="text;strokeColor=none;fillColor=none;align=left;verticalAlign=top;spacingLeft=4;spacingRight=4;overflow=hidden;rotatable=0;points=[[0,0.5],[1,0.5]];portConstraint=eastwest;whiteSpace=wrap;html=1;" vertex="1" parent="9be7_pFp6uKiazAgbo8Y-53">
          <mxGeometry y="26" width="140" height="54" as="geometry" />
        </mxCell>
        <mxCell id="9be7_pFp6uKiazAgbo8Y-57" value="Abbonamento" style="swimlane;fontStyle=0;childLayout=stackLayout;horizontal=1;startSize=26;fillColor=none;horizontalStack=0;resizeParent=1;resizeParentMax=0;resizeLast=0;collapsible=1;marginBottom=0;whiteSpace=wrap;html=1;" vertex="1" parent="1">
          <mxGeometry x="940" y="180" width="260" height="122" as="geometry" />
        </mxCell>
        <mxCell id="9be7_pFp6uKiazAgbo8Y-58" value="+ tipoAbbonamento: enum TipoAbbonamento (SETTIMANALE, MENSILE)" style="text;strokeColor=none;fillColor=none;align=left;verticalAlign=top;spacingLeft=4;spacingRight=4;overflow=hidden;rotatable=0;points=[[0,0.5],[1,0.5]];portConstraint=eastwest;whiteSpace=wrap;html=1;" vertex="1" parent="9be7_pFp6uKiazAgbo8Y-57">
          <mxGeometry y="26" width="260" height="44" as="geometry" />
        </mxCell>
        <mxCell id="9be7_pFp6uKiazAgbo8Y-59" value="+ dataScadenza: LocalDate" style="text;strokeColor=none;fillColor=none;align=left;verticalAlign=top;spacingLeft=4;spacingRight=4;overflow=hidden;rotatable=0;points=[[0,0.5],[1,0.5]];portConstraint=eastwest;whiteSpace=wrap;html=1;" vertex="1" parent="9be7_pFp6uKiazAgbo8Y-57">
          <mxGeometry y="70" width="260" height="26" as="geometry" />
        </mxCell>
        <mxCell id="9be7_pFp6uKiazAgbo8Y-60" value="+ tessera: Tessera" style="text;strokeColor=none;fillColor=none;align=left;verticalAlign=top;spacingLeft=4;spacingRight=4;overflow=hidden;rotatable=0;points=[[0,0.5],[1,0.5]];portConstraint=eastwest;whiteSpace=wrap;html=1;" vertex="1" parent="9be7_pFp6uKiazAgbo8Y-57">
          <mxGeometry y="96" width="260" height="26" as="geometry" />
        </mxCell>
        <mxCell id="9be7_pFp6uKiazAgbo8Y-61" value="" style="edgeStyle=elbowEdgeStyle;fontSize=12;html=1;endArrow=ERmandOne;startArrow=ERmandOne;rounded=0;entryX=-0.016;entryY=0.407;entryDx=0;entryDy=0;elbow=vertical;entryPerimeter=0;exitX=1.02;exitY=0.088;exitDx=0;exitDy=0;exitPerimeter=0;" edge="1" parent="1" source="9be7_pFp6uKiazAgbo8Y-17" target="9be7_pFp6uKiazAgbo8Y-60">
          <mxGeometry width="100" height="100" relative="1" as="geometry">
            <mxPoint x="458.92" y="300" as="sourcePoint" />
            <mxPoint x="928.92" y="359" as="targetPoint" />
            <Array as="points">
              <mxPoint x="580" y="350" />
              <mxPoint x="690" y="370" />
            </Array>
          </mxGeometry>
        </mxCell>
        <mxCell id="9be7_pFp6uKiazAgbo8Y-62" value="Mezzo" style="swimlane;fontStyle=0;childLayout=stackLayout;horizontal=1;startSize=26;fillColor=none;horizontalStack=0;resizeParent=1;resizeParentMax=0;resizeLast=0;collapsible=1;marginBottom=0;whiteSpace=wrap;html=1;" vertex="1" parent="1">
          <mxGeometry x="490" y="400" width="190" height="202" as="geometry" />
        </mxCell>
        <mxCell id="9be7_pFp6uKiazAgbo8Y-63" value="+ id: Integer" style="text;strokeColor=none;fillColor=none;align=left;verticalAlign=top;spacingLeft=4;spacingRight=4;overflow=hidden;rotatable=0;points=[[0,0.5],[1,0.5]];portConstraint=eastwest;whiteSpace=wrap;html=1;" vertex="1" parent="9be7_pFp6uKiazAgbo8Y-62">
          <mxGeometry y="26" width="190" height="26" as="geometry" />
        </mxCell>
        <mxCell id="9be7_pFp6uKiazAgbo8Y-64" value="+ capienza: Integer" style="text;strokeColor=none;fillColor=none;align=left;verticalAlign=top;spacingLeft=4;spacingRight=4;overflow=hidden;rotatable=0;points=[[0,0.5],[1,0.5]];portConstraint=eastwest;whiteSpace=wrap;html=1;" vertex="1" parent="9be7_pFp6uKiazAgbo8Y-62">
          <mxGeometry y="52" width="190" height="26" as="geometry" />
        </mxCell>
        <mxCell id="9be7_pFp6uKiazAgbo8Y-65" value="+ bigliettiVidimati: List&amp;lt;Biglietto&amp;gt;" style="text;strokeColor=none;fillColor=none;align=left;verticalAlign=top;spacingLeft=4;spacingRight=4;overflow=hidden;rotatable=0;points=[[0,0.5],[1,0.5]];portConstraint=eastwest;whiteSpace=wrap;html=1;" vertex="1" parent="9be7_pFp6uKiazAgbo8Y-62">
          <mxGeometry y="78" width="190" height="26" as="geometry" />
        </mxCell>
        <mxCell id="9be7_pFp6uKiazAgbo8Y-66" value="+ tipoMezzo: enum TipoMezzo (TRAM, AUTOBUS)" style="text;strokeColor=none;fillColor=none;align=left;verticalAlign=top;spacingLeft=4;spacingRight=4;overflow=hidden;rotatable=0;points=[[0,0.5],[1,0.5]];portConstraint=eastwest;whiteSpace=wrap;html=1;" vertex="1" parent="9be7_pFp6uKiazAgbo8Y-62">
          <mxGeometry y="104" width="190" height="46" as="geometry" />
        </mxCell>
        <mxCell id="9be7_pFp6uKiazAgbo8Y-67" value="+ statiMezzo: List&amp;lt;StatoMezzo&amp;gt;" style="text;strokeColor=none;fillColor=none;align=left;verticalAlign=top;spacingLeft=4;spacingRight=4;overflow=hidden;rotatable=0;points=[[0,0.5],[1,0.5]];portConstraint=eastwest;whiteSpace=wrap;html=1;" vertex="1" parent="9be7_pFp6uKiazAgbo8Y-62">
          <mxGeometry y="150" width="190" height="26" as="geometry" />
        </mxCell>
        <mxCell id="9be7_pFp6uKiazAgbo8Y-68" value="+ viaggi: List&amp;lt;Viaggio&amp;gt;" style="text;strokeColor=none;fillColor=none;align=left;verticalAlign=top;spacingLeft=4;spacingRight=4;overflow=hidden;rotatable=0;points=[[0,0.5],[1,0.5]];portConstraint=eastwest;whiteSpace=wrap;html=1;" vertex="1" parent="9be7_pFp6uKiazAgbo8Y-62">
          <mxGeometry y="176" width="190" height="26" as="geometry" />
        </mxCell>
        <mxCell id="9be7_pFp6uKiazAgbo8Y-70" value="" style="edgeStyle=orthogonalEdgeStyle;fontSize=12;html=1;endArrow=ERoneToMany;rounded=0;curved=1;entryX=0.007;entryY=0.308;entryDx=0;entryDy=0;entryPerimeter=0;exitX=0;exitY=0.5;exitDx=0;exitDy=0;" edge="1" parent="1" source="9be7_pFp6uKiazAgbo8Y-51" target="9be7_pFp6uKiazAgbo8Y-65">
          <mxGeometry width="100" height="100" relative="1" as="geometry">
            <mxPoint x="390" y="430" as="sourcePoint" />
            <mxPoint x="490" y="330" as="targetPoint" />
            <Array as="points">
              <mxPoint x="690" y="271" />
              <mxPoint x="690" y="370" />
              <mxPoint x="420" y="370" />
              <mxPoint x="420" y="486" />
            </Array>
          </mxGeometry>
        </mxCell>
        <mxCell id="9be7_pFp6uKiazAgbo8Y-71" value="StatoMezzo" style="swimlane;fontStyle=0;childLayout=stackLayout;horizontal=1;startSize=26;fillColor=none;horizontalStack=0;resizeParent=1;resizeParentMax=0;resizeLast=0;collapsible=1;marginBottom=0;whiteSpace=wrap;html=1;" vertex="1" parent="1">
          <mxGeometry x="730" y="400" width="170" height="186" as="geometry" />
        </mxCell>
        <mxCell id="9be7_pFp6uKiazAgbo8Y-72" value="+ id: Integer" style="text;strokeColor=none;fillColor=none;align=left;verticalAlign=top;spacingLeft=4;spacingRight=4;overflow=hidden;rotatable=0;points=[[0,0.5],[1,0.5]];portConstraint=eastwest;whiteSpace=wrap;html=1;" vertex="1" parent="9be7_pFp6uKiazAgbo8Y-71">
          <mxGeometry y="26" width="170" height="26" as="geometry" />
        </mxCell>
        <mxCell id="9be7_pFp6uKiazAgbo8Y-73" value="+ inizio: LocalDateTime" style="text;strokeColor=none;fillColor=none;align=left;verticalAlign=top;spacingLeft=4;spacingRight=4;overflow=hidden;rotatable=0;points=[[0,0.5],[1,0.5]];portConstraint=eastwest;whiteSpace=wrap;html=1;" vertex="1" parent="9be7_pFp6uKiazAgbo8Y-71">
          <mxGeometry y="52" width="170" height="26" as="geometry" />
        </mxCell>
        <mxCell id="9be7_pFp6uKiazAgbo8Y-74" value="+ fine: LocalDateTime" style="text;strokeColor=none;fillColor=none;align=left;verticalAlign=top;spacingLeft=4;spacingRight=4;overflow=hidden;rotatable=0;points=[[0,0.5],[1,0.5]];portConstraint=eastwest;whiteSpace=wrap;html=1;" vertex="1" parent="9be7_pFp6uKiazAgbo8Y-71">
          <mxGeometry y="78" width="170" height="26" as="geometry" />
        </mxCell>
        <mxCell id="9be7_pFp6uKiazAgbo8Y-75" value="+ tipo: enum TipoStatoMezzo (SERVIZIO, MANUTENZIONE)" style="text;strokeColor=none;fillColor=none;align=left;verticalAlign=top;spacingLeft=4;spacingRight=4;overflow=hidden;rotatable=0;points=[[0,0.5],[1,0.5]];portConstraint=eastwest;whiteSpace=wrap;html=1;" vertex="1" parent="9be7_pFp6uKiazAgbo8Y-71">
          <mxGeometry y="104" width="170" height="56" as="geometry" />
        </mxCell>
        <mxCell id="9be7_pFp6uKiazAgbo8Y-76" value="+ mezzo: Mezzo" style="text;strokeColor=none;fillColor=none;align=left;verticalAlign=top;spacingLeft=4;spacingRight=4;overflow=hidden;rotatable=0;points=[[0,0.5],[1,0.5]];portConstraint=eastwest;whiteSpace=wrap;html=1;" vertex="1" parent="9be7_pFp6uKiazAgbo8Y-71">
          <mxGeometry y="160" width="170" height="26" as="geometry" />
        </mxCell>
        <mxCell id="9be7_pFp6uKiazAgbo8Y-77" value="" style="edgeStyle=orthogonalEdgeStyle;fontSize=12;html=1;endArrow=ERoneToMany;rounded=0;curved=1;entryX=1.023;entryY=0.615;entryDx=0;entryDy=0;entryPerimeter=0;exitX=0.007;exitY=0.594;exitDx=0;exitDy=0;exitPerimeter=0;" edge="1" parent="1" source="9be7_pFp6uKiazAgbo8Y-76">
          <mxGeometry width="100" height="100" relative="1" as="geometry">
            <mxPoint x="722.4" y="575.132" as="sourcePoint" />
            <mxPoint x="680" y="565.99" as="targetPoint" />
            <Array as="points">
              <mxPoint x="716" y="575" />
              <mxPoint x="716" y="580" />
              <mxPoint x="706" y="580" />
              <mxPoint x="706" y="566" />
            </Array>
          </mxGeometry>
        </mxCell>
        <mxCell id="9be7_pFp6uKiazAgbo8Y-78" value="Tratta" style="swimlane;fontStyle=0;childLayout=stackLayout;horizontal=1;startSize=26;fillColor=none;horizontalStack=0;resizeParent=1;resizeParentMax=0;resizeLast=0;collapsible=1;marginBottom=0;whiteSpace=wrap;html=1;" vertex="1" parent="1">
          <mxGeometry x="470" y="630" width="170" height="156" as="geometry" />
        </mxCell>
        <mxCell id="9be7_pFp6uKiazAgbo8Y-79" value="+ id: Integer" style="text;strokeColor=none;fillColor=none;align=left;verticalAlign=top;spacingLeft=4;spacingRight=4;overflow=hidden;rotatable=0;points=[[0,0.5],[1,0.5]];portConstraint=eastwest;whiteSpace=wrap;html=1;" vertex="1" parent="9be7_pFp6uKiazAgbo8Y-78">
          <mxGeometry y="26" width="170" height="26" as="geometry" />
        </mxCell>
        <mxCell id="9be7_pFp6uKiazAgbo8Y-80" value="+ luogoPartenza: String" style="text;strokeColor=none;fillColor=none;align=left;verticalAlign=top;spacingLeft=4;spacingRight=4;overflow=hidden;rotatable=0;points=[[0,0.5],[1,0.5]];portConstraint=eastwest;whiteSpace=wrap;html=1;" vertex="1" parent="9be7_pFp6uKiazAgbo8Y-78">
          <mxGeometry y="52" width="170" height="26" as="geometry" />
        </mxCell>
        <mxCell id="9be7_pFp6uKiazAgbo8Y-81" value="+ luogoArrivo: String" style="text;strokeColor=none;fillColor=none;align=left;verticalAlign=top;spacingLeft=4;spacingRight=4;overflow=hidden;rotatable=0;points=[[0,0.5],[1,0.5]];portConstraint=eastwest;whiteSpace=wrap;html=1;" vertex="1" parent="9be7_pFp6uKiazAgbo8Y-78">
          <mxGeometry y="78" width="170" height="26" as="geometry" />
        </mxCell>
        <mxCell id="9be7_pFp6uKiazAgbo8Y-82" value="+ percorrenzaMedia: Duration" style="text;strokeColor=none;fillColor=none;align=left;verticalAlign=top;spacingLeft=4;spacingRight=4;overflow=hidden;rotatable=0;points=[[0,0.5],[1,0.5]];portConstraint=eastwest;whiteSpace=wrap;html=1;" vertex="1" parent="9be7_pFp6uKiazAgbo8Y-78">
          <mxGeometry y="104" width="170" height="26" as="geometry" />
        </mxCell>
        <mxCell id="9be7_pFp6uKiazAgbo8Y-83" value="+ viaggi: List&amp;lt;Viaggio&amp;gt;" style="text;strokeColor=none;fillColor=none;align=left;verticalAlign=top;spacingLeft=4;spacingRight=4;overflow=hidden;rotatable=0;points=[[0,0.5],[1,0.5]];portConstraint=eastwest;whiteSpace=wrap;html=1;" vertex="1" parent="9be7_pFp6uKiazAgbo8Y-78">
          <mxGeometry y="130" width="170" height="26" as="geometry" />
        </mxCell>
        <mxCell id="9be7_pFp6uKiazAgbo8Y-84" value="Viaggio" style="swimlane;fontStyle=0;childLayout=stackLayout;horizontal=1;startSize=26;fillColor=none;horizontalStack=0;resizeParent=1;resizeParentMax=0;resizeLast=0;collapsible=1;marginBottom=0;whiteSpace=wrap;html=1;" vertex="1" parent="1">
          <mxGeometry x="690" y="630" width="190" height="182" as="geometry" />
        </mxCell>
        <mxCell id="9be7_pFp6uKiazAgbo8Y-85" value="+ id: Integer" style="text;strokeColor=none;fillColor=none;align=left;verticalAlign=top;spacingLeft=4;spacingRight=4;overflow=hidden;rotatable=0;points=[[0,0.5],[1,0.5]];portConstraint=eastwest;whiteSpace=wrap;html=1;" vertex="1" parent="9be7_pFp6uKiazAgbo8Y-84">
          <mxGeometry y="26" width="190" height="26" as="geometry" />
        </mxCell>
        <mxCell id="9be7_pFp6uKiazAgbo8Y-86" value="+ orarioPartenza: LocalDateTime" style="text;strokeColor=none;fillColor=none;align=left;verticalAlign=top;spacingLeft=4;spacingRight=4;overflow=hidden;rotatable=0;points=[[0,0.5],[1,0.5]];portConstraint=eastwest;whiteSpace=wrap;html=1;" vertex="1" parent="9be7_pFp6uKiazAgbo8Y-84">
          <mxGeometry y="52" width="190" height="26" as="geometry" />
        </mxCell>
        <mxCell id="9be7_pFp6uKiazAgbo8Y-87" value="+ orarioArrivo: LocalDateTime" style="text;strokeColor=none;fillColor=none;align=left;verticalAlign=top;spacingLeft=4;spacingRight=4;overflow=hidden;rotatable=0;points=[[0,0.5],[1,0.5]];portConstraint=eastwest;whiteSpace=wrap;html=1;" vertex="1" parent="9be7_pFp6uKiazAgbo8Y-84">
          <mxGeometry y="78" width="190" height="26" as="geometry" />
        </mxCell>
        <mxCell id="9be7_pFp6uKiazAgbo8Y-88" value="+ percorrenzaEffettiva: Duration" style="text;strokeColor=none;fillColor=none;align=left;verticalAlign=top;spacingLeft=4;spacingRight=4;overflow=hidden;rotatable=0;points=[[0,0.5],[1,0.5]];portConstraint=eastwest;whiteSpace=wrap;html=1;" vertex="1" parent="9be7_pFp6uKiazAgbo8Y-84">
          <mxGeometry y="104" width="190" height="26" as="geometry" />
        </mxCell>
        <mxCell id="9be7_pFp6uKiazAgbo8Y-89" value="+ tratta: Tratta" style="text;strokeColor=none;fillColor=none;align=left;verticalAlign=top;spacingLeft=4;spacingRight=4;overflow=hidden;rotatable=0;points=[[0,0.5],[1,0.5]];portConstraint=eastwest;whiteSpace=wrap;html=1;" vertex="1" parent="9be7_pFp6uKiazAgbo8Y-84">
          <mxGeometry y="130" width="190" height="26" as="geometry" />
        </mxCell>
        <mxCell id="9be7_pFp6uKiazAgbo8Y-90" value="+ mezzo: Mezzo" style="text;strokeColor=none;fillColor=none;align=left;verticalAlign=top;spacingLeft=4;spacingRight=4;overflow=hidden;rotatable=0;points=[[0,0.5],[1,0.5]];portConstraint=eastwest;whiteSpace=wrap;html=1;" vertex="1" parent="9be7_pFp6uKiazAgbo8Y-84">
          <mxGeometry y="156" width="190" height="26" as="geometry" />
        </mxCell>
        <mxCell id="9be7_pFp6uKiazAgbo8Y-91" value="" style="edgeStyle=orthogonalEdgeStyle;fontSize=12;html=1;endArrow=ERoneToMany;rounded=0;curved=1;entryX=0;entryY=0.5;entryDx=0;entryDy=0;exitX=0;exitY=0.5;exitDx=0;exitDy=0;" edge="1" parent="1" source="9be7_pFp6uKiazAgbo8Y-89" target="9be7_pFp6uKiazAgbo8Y-83">
          <mxGeometry width="100" height="100" relative="1" as="geometry">
            <mxPoint x="510" y="910" as="sourcePoint" />
            <mxPoint x="610" y="810" as="targetPoint" />
            <Array as="points">
              <mxPoint x="650" y="773" />
              <mxPoint x="650" y="848" />
              <mxPoint x="450" y="848" />
              <mxPoint x="450" y="773" />
            </Array>
          </mxGeometry>
        </mxCell>
        <mxCell id="9be7_pFp6uKiazAgbo8Y-92" value="" style="edgeStyle=orthogonalEdgeStyle;fontSize=12;html=1;endArrow=ERoneToMany;rounded=0;curved=1;entryX=1.008;entryY=0.692;entryDx=0;entryDy=0;entryPerimeter=0;exitX=0.004;exitY=0.703;exitDx=0;exitDy=0;exitPerimeter=0;" edge="1" parent="1" source="9be7_pFp6uKiazAgbo8Y-90" target="9be7_pFp6uKiazAgbo8Y-68">
          <mxGeometry width="100" height="100" relative="1" as="geometry">
            <mxPoint x="580" y="920" as="sourcePoint" />
            <mxPoint x="680" y="820" as="targetPoint" />
            <Array as="points">
              <mxPoint x="650" y="804" />
              <mxPoint x="650" y="620" />
              <mxPoint x="720" y="620" />
              <mxPoint x="720" y="594" />
            </Array>
          </mxGeometry>
        </mxCell>
      </root>
    </mxGraphModel>
  </diagram>
</mxfile>
